<?xml version="1.0" encoding="UTF-8"?>
<svg xmlns="http://www.w3.org/2000/svg" xmlns:xlink="http://www.w3.org/1999/xlink" width="40px" height="40px" viewBox="0 0 40 40" version="1.1">
<defs>
<linearGradient id="linear0" gradientUnits="userSpaceOnUse" x1="609.77" y1="1190.114" x2="609.77" y2="21.084" gradientTransform="matrix(0.0327969,0,0,0.0326526,0.00129432,0)">
<stop offset="0" style="stop-color:rgb(12.54902%,69.019608%,21.960784%);stop-opacity:1;"/>
<stop offset="1" style="stop-color:rgb(37.647059%,83.921569%,41.568627%);stop-opacity:1;"/>
</linearGradient>
</defs>
<g id="surface1">
<path style=" stroke:none;fill-rule:nonzero;fill:rgb(87.843137%,87.843137%,87.843137%);fill-opacity:1;" d="M 34.171875 5.8125 C 30.410156 2.066406 25.410156 0.00390625 20.082031 0 C 9.105469 0 0.171875 8.890625 0.167969 19.820312 C 0.167969 23.3125 1.085938 26.722656 2.828125 29.730469 L 0 40 L 10.558594 37.242188 C 13.46875 38.824219 16.742188 39.65625 20.074219 39.65625 L 20.082031 39.65625 C 31.058594 39.65625 39.992188 30.765625 40 19.835938 C 40 14.539062 37.929688 9.558594 34.171875 5.8125 Z M 20.082031 36.308594 L 20.078125 36.308594 C 17.105469 36.308594 14.195312 35.511719 11.652344 34.011719 L 11.046875 33.65625 L 4.78125 35.289062 L 6.457031 29.210938 L 6.0625 28.589844 C 4.40625 25.964844 3.53125 22.933594 3.53125 19.820312 C 3.535156 10.738281 10.960938 3.347656 20.089844 3.347656 C 24.511719 3.347656 28.667969 5.066406 31.792969 8.179688 C 34.917969 11.292969 36.636719 15.433594 36.636719 19.835938 C 36.632812 28.917969 29.207031 36.308594 20.082031 36.308594 Z M 20.082031 36.308594 "/>
<path style=" stroke:none;fill-rule:nonzero;fill:url(#linear0);" d="M 0.914062 38.859375 L 3.613281 29.058594 C 1.949219 26.191406 1.074219 22.9375 1.074219 19.601562 C 1.078125 9.171875 9.605469 0.6875 20.078125 0.6875 C 25.164062 0.691406 29.933594 2.660156 33.523438 6.234375 C 37.109375 9.8125 39.085938 14.5625 39.085938 19.617188 C 39.078125 30.046875 30.554688 38.53125 20.082031 38.53125 C 20.078125 38.53125 20.082031 38.53125 20.082031 38.53125 L 20.070312 38.53125 C 16.890625 38.53125 13.765625 37.738281 10.992188 36.230469 Z M 0.914062 38.859375 "/>
<path style=" stroke:none;fill-rule:evenodd;fill:rgb(100%,100%,100%);fill-opacity:1;" d="M 15.164062 11.40625 C 14.792969 10.589844 14.40625 10.574219 14.054688 10.558594 C 13.769531 10.546875 13.441406 10.546875 13.113281 10.546875 C 12.785156 10.546875 12.253906 10.671875 11.800781 11.160156 C 11.351562 11.652344 10.078125 12.835938 10.078125 15.246094 C 10.078125 17.652344 11.84375 19.984375 12.089844 20.308594 C 12.332031 20.636719 15.492188 25.738281 20.492188 27.703125 C 24.644531 29.332031 25.492188 29.007812 26.394531 28.925781 C 27.296875 28.84375 29.304688 27.742188 29.714844 26.597656 C 30.125 25.457031 30.125 24.476562 30 24.269531 C 29.878906 24.066406 29.550781 23.945312 29.058594 23.699219 C 28.566406 23.453125 26.148438 22.269531 25.695312 22.105469 C 25.246094 21.941406 24.917969 21.859375 24.589844 22.351562 C 24.261719 22.839844 23.320312 23.945312 23.03125 24.269531 C 22.746094 24.597656 22.457031 24.636719 21.964844 24.394531 C 21.472656 24.148438 19.890625 23.632812 18.011719 21.964844 C 16.546875 20.664062 15.5625 19.0625 15.273438 18.570312 C 14.988281 18.082031 15.242188 17.816406 15.492188 17.574219 C 15.710938 17.351562 15.980469 17 16.226562 16.714844 C 16.472656 16.429688 16.554688 16.226562 16.71875 15.898438 C 16.882812 15.570312 16.800781 15.285156 16.679688 15.039062 C 16.554688 14.796875 15.601562 12.375 15.164062 11.40625 Z M 15.164062 11.40625 "/>
<path style=" stroke:none;fill-rule:nonzero;fill:rgb(100%,100%,100%);fill-opacity:1;" d="M 34.007812 5.75 C 30.292969 2.046875 25.347656 0.0078125 20.082031 0.00390625 C 9.230469 0.00390625 0.402344 8.792969 0.394531 19.597656 C 0.394531 23.050781 1.300781 26.421875 3.023438 29.390625 L 0.230469 39.542969 L 10.667969 36.820312 C 13.542969 38.382812 16.78125 39.203125 20.074219 39.207031 L 20.082031 39.207031 C 30.933594 39.207031 39.765625 30.414062 39.769531 19.613281 C 39.769531 14.375 37.726562 9.453125 34.007812 5.75 Z M 20.082031 35.894531 L 20.078125 35.894531 C 17.140625 35.894531 14.261719 35.109375 11.75 33.625 L 11.152344 33.273438 L 4.957031 34.890625 L 6.609375 28.878906 L 6.222656 28.265625 C 4.582031 25.671875 3.71875 22.675781 3.71875 19.597656 C 3.722656 10.617188 11.0625 3.3125 20.089844 3.3125 C 24.460938 3.316406 28.566406 5.011719 31.65625 8.089844 C 34.746094 11.167969 36.445312 15.257812 36.445312 19.609375 C 36.441406 28.589844 29.101562 35.894531 20.082031 35.894531 Z M 20.082031 35.894531 "/>
</g>
</svg>
